<?xml version="1.0" encoding="utf-8"?>
<!-- Generator: Adobe Illustrator 19.2.1, SVG Export Plug-In . SVG Version: 6.00 Build 0)  -->
<svg version="1.1" id="Layer_1" xmlns="http://www.w3.org/2000/svg" xmlns:xlink="http://www.w3.org/1999/xlink" x="0px" y="0px"
	 viewBox="0 0 102.6 83.4" style="enable-background:new 0 0 102.6 83.4;" xml:space="preserve">
<style type="text/css">
	.st0{fill:#F3F3F3;}
</style>
<g>
	<path class="st0" d="M0,0v83.4h102.6V0C102.6,0,0,0,0,0z M96.2,76.9H6.4V6.4h89.8V76.9z"/>
	<path class="st0" d="M38.5,57.7l19.2-6.4l6.4-19.2l6.4,12.8l6.4,19.2l6.4,6.4h6.4V12.8H12.8v57.7h12.8L38.5,57.7z M35.3,19.2
		c5.3,0,9.6,4.3,9.6,9.6c0,5.3-4.3,9.6-9.6,9.6c-5.3,0-9.6-4.3-9.6-9.6C25.6,23.5,30,19.2,35.3,19.2z"/>
</g>
</svg>
